<?xml version="1.0" encoding="utf-8"?>
<!-- Generator: Adobe Illustrator 25.0.1, SVG Export Plug-In . SVG Version: 6.00 Build 0)  -->
<svg version="1.1" id="Layer_1" xmlns="http://www.w3.org/2000/svg" xmlns:xlink="http://www.w3.org/1999/xlink" x="0px" y="0px"
	 viewBox="0 0 105 105" style="enable-background:new 0 0 105 105;" xml:space="preserve">
<style type="text/css">
	.st0{fill:#FFFFFF;}
</style>
<g id="XMLID_22_">
	<g id="XMLID_23_">
		<path id="XMLID_26_" class="st0" d="M19.13,21.02c-0.5-0.68-1.37-0.99-2.19-0.77s-1.42,0.92-1.51,1.76l-1.32,12.24
			c-0.12,1.13,0.69,2.14,1.82,2.26c0.07,0.01,0.15,0.01,0.22,0.01c1.03,0,1.92-0.78,2.04-1.83l0.75-6.97l4.13,5.66
			c0.67,0.91,1.95,1.11,2.87,0.45c0.91-0.67,1.11-1.95,0.45-2.87L19.13,21.02z"/>
		<path id="XMLID_25_" class="st0" d="M98.85,15.59H64.18L61.22,4.56c-0.43-1.59-1.44-2.91-2.87-3.74
			c-1.42-0.82-3.08-1.04-4.67-0.61L4.56,13.38c-1.59,0.43-2.91,1.44-3.74,2.87c-0.82,1.42-1.04,3.08-0.61,4.67l19.96,74.48
			c0.43,1.59,1.44,2.91,2.87,3.74c0.95,0.55,2,0.83,3.07,0.83c0.53,0,1.07-0.07,1.6-0.21l14.13-3.79v2.89
			c0,3.39,2.76,6.15,6.15,6.15h50.86c3.39,0,6.15-2.76,6.15-6.15V69.52c0-1.13-0.92-2.05-2.05-2.05s-2.05,0.92-2.05,2.05v29.33
			c0,1.13-0.92,2.05-2.05,2.05H47.99c-1.13,0-2.05-0.92-2.05-2.05V21.74c0-1.13,0.92-2.05,2.05-2.05h50.86
			c1.13,0,2.05,0.92,2.05,2.05v29.33c0,1.13,0.92,2.05,2.05,2.05S105,52.2,105,51.07V21.74C105,18.35,102.24,15.59,98.85,15.59z
			 M41.84,21.74v14.47l-3.05-1.76c-0.98-0.57-2.24-0.23-2.8,0.75l-7.7,13.34c-1.4,2.42-1.77,5.24-1.04,7.93
			c0.72,2.7,2.45,4.95,4.87,6.35c1.66,0.96,3.46,1.42,5.25,1.42c1.55,0,3.08-0.35,4.48-1.02v28.48l-15.19,4.07
			c-0.53,0.14-1.08,0.07-1.56-0.2c-0.47-0.27-0.81-0.72-0.96-1.25L4.17,19.85c-0.29-1.09,0.36-2.22,1.45-2.51L54.75,4.17
			c0.53-0.14,1.08-0.07,1.56,0.2c0.47,0.27,0.81,0.72,0.96,1.25l2.67,9.96H47.99C44.6,15.59,41.84,18.35,41.84,21.74L41.84,21.74z"
			/>
		<path id="XMLID_24_" class="st0" d="M102.95,58.24c-0.54,0-1.07,0.22-1.45,0.6c-0.38,0.38-0.6,0.91-0.6,1.45s0.22,1.07,0.6,1.45
			c0.38,0.38,0.91,0.6,1.45,0.6c0.54,0,1.07-0.22,1.45-0.6c0.38-0.38,0.6-0.91,0.6-1.45s-0.22-1.07-0.6-1.45
			S103.49,58.24,102.95,58.24z"/>
		<g>
			<circle class="st0" cx="82.33" cy="51.9" r="1.38"/>
			<circle class="st0" cx="77.01" cy="46.59" r="1.38"/>
			<circle class="st0" cx="87.64" cy="57.22" r="1.38"/>
			<path class="st0" d="M91.96,38.14H72.7c-2.28,0-4.13,1.85-4.13,4.13v7.7c-0.53-0.24-1.1-0.36-1.7-0.36
				c-1.1,0-2.14,0.43-2.92,1.21L50.33,64.44c-1.61,1.61-1.61,4.23,0,5.84L63.95,83.9c0.78,0.78,1.82,1.21,2.92,1.21
				s2.14-0.43,2.92-1.21l13.62-13.62c1.25-1.25,1.53-3.1,0.84-4.62h7.71c2.28,0,4.13-1.85,4.13-4.13V42.27
				C96.09,40,94.23,38.14,91.96,38.14L91.96,38.14z M81.46,68.33L67.84,81.95c-0.26,0.26-0.61,0.4-0.97,0.4
				c-0.37,0-0.71-0.14-0.97-0.4L52.28,68.33c-0.54-0.54-0.54-1.41,0-1.95L65.9,52.77c0.26-0.26,0.61-0.4,0.97-0.4
				c0.37,0,0.71,0.14,0.97,0.4l13.62,13.62C82,66.92,82,67.8,81.46,68.33z M93.33,61.53c0,0.76-0.62,1.38-1.38,1.38H81.88
				L71.32,52.35V42.27c0-0.76,0.62-1.38,1.38-1.38h19.26c0.76,0,1.38,0.62,1.38,1.38V61.53z"/>
			<circle class="st0" cx="67.84" cy="60.55" r="1.38"/>
			<circle class="st0" cx="60.06" cy="68.33" r="1.38"/>
			<circle class="st0" cx="63.95" cy="64.44" r="1.38"/>
			<circle class="st0" cx="73.68" cy="66.39" r="1.38"/>
			<circle class="st0" cx="65.9" cy="74.17" r="1.38"/>
			<circle class="st0" cx="69.79" cy="70.28" r="1.38"/>
		</g>
	</g>
</g>
</svg>
