<?xml version="1.0" encoding="utf-8"?>
<!-- Generator: Adobe Illustrator 25.0.1, SVG Export Plug-In . SVG Version: 6.00 Build 0)  -->
<svg version="1.1" id="Layer_1" xmlns="http://www.w3.org/2000/svg" xmlns:xlink="http://www.w3.org/1999/xlink" x="0px" y="0px"
	 viewBox="0 0 105 105" style="enable-background:new 0 0 105 105;" xml:space="preserve">
<style type="text/css">
	.st0{fill:#FFFFFF;}
</style>
<g>
	<path class="st0" d="M99.61,46.43L55.73,2.56C54.03,0.85,51.98,0,49.6,0c-2.34,0-4.36,0.85-6.07,2.56l-5.05,5.05
		c-1.71,1.62-2.56,3.64-2.56,6.07c0,2.43,0.85,4.45,2.56,6.07l19.75,19.81H10.78c-2.34,0-4.23,0.84-5.69,2.53
		c-1.46,1.69-2.19,3.72-2.19,6.1v8.63c0,2.38,0.73,4.41,2.19,6.1c1.46,1.69,3.36,2.53,5.69,2.53h47.45L38.48,85.19
		c-1.71,1.71-2.56,3.75-2.56,6.13c0,2.38,0.85,4.43,2.56,6.13l5.05,5.05c1.75,1.66,3.77,2.49,6.07,2.49c2.34,0,4.38-0.83,6.13-2.49
		l43.87-43.87c1.66-1.66,2.49-3.71,2.49-6.13C102.1,50.03,101.27,48.01,99.61,46.43z"/>
</g>
</svg>
