<?xml version="1.0" encoding="utf-8"?>
<!-- Generator: Adobe Illustrator 25.0.1, SVG Export Plug-In . SVG Version: 6.00 Build 0)  -->
<svg version="1.1" id="Layer_1" xmlns="http://www.w3.org/2000/svg" xmlns:xlink="http://www.w3.org/1999/xlink" x="0px" y="0px"
	 viewBox="0 0 105 105" style="enable-background:new 0 0 105 105;" xml:space="preserve">
<style type="text/css">
	.st0{fill:#FFFFFF;}
	.st1{fill:#221F1F;}
</style>
<g transform="translate(0.000000,825.000000) scale(0.100000,-0.100000)">
	<g>
		<path class="st0" d="M238.04,8058.39c-30.05-6.42-61.89-32-93.97-75.53c-63.03-85.6-117.85-232.2-134.25-358.58
			c-3.57-27.61-4.39-40.61-4.39-69.85c0-29.73,0.81-41.18,4.39-61.32c10.96-60.83,39.63-95.35,84.71-102.01
			c21.44-3.17,42.64,0.97,63.92,12.43c20.22,10.88,37.12,24.37,60.91,48.65c20.87,21.28,34.6,37.69,69.85,83.57
			c11.29,14.78,23.96,30.94,28.18,35.9l7.63,9.18h199.72h199.72l7.63-9.18c4.22-4.95,17.87-22.42,30.46-38.74
			c37.04-48.24,51-64.57,74.56-87.72c19.98-19.49,33.79-30.38,51.09-40.12c22.58-12.67,44.43-17.3,66.76-13.97
			c10.48,1.54,19.09,4.22,27.94,8.69c55.15,27.61,74.31,117.6,53.12,248.85c-17.06,105.58-60.1,223.59-111.35,305.71
			c-16.57,26.48-32.08,46.38-50.27,64.73c-21.52,21.6-38.9,32.89-59.37,38.66c-6.42,1.87-6.82,1.87-75.86,2.11
			c-67.41,0.24-69.52,0.16-74.72-1.38c-6.9-2.11-16.97-8.53-33.3-21.2c-14.7-11.37-22.74-16.57-28.99-18.84
			c-3.98-1.38-8.45-1.46-77.4-1.46s-73.42,0.08-77.4,1.46c-6.25,2.27-14.29,7.47-28.99,18.84c-16.24,12.59-26.31,19-33.14,21.12
			c-5.04,1.54-7.55,1.62-72.77,1.54C250.39,8059.93,244.38,8059.77,238.04,8058.39z M783.26,7957.35c8.53-2.03,16-8.61,18.92-16.89
			c1.62-4.47,1.62-13.08,0-17.54c-6.74-18.84-30.94-23.96-44.35-9.42c-5.28,5.69-6.9,9.99-6.9,18.19c0,5.28,0.41,7.8,1.71,10.64
			c3.41,7.31,10.15,12.91,18.11,15.03C775.62,7958.65,777.57,7958.65,783.26,7957.35z M277.84,7917.47v-28.83h28.83h28.83
			l-0.16-19.17l-0.24-19.09l-28.59,0.08h-28.67l-0.16-29l-0.24-29.08l-19.25-0.24l-19.33-0.16v29.24v29.24h-28.83h-28.83v19.09
			v19.09h28.83h28.83v28.83v28.83h19.49h19.49V7917.47z M718.28,7892.38c8.77-2.03,16.81-9.58,19.25-18.03
			c1.46-5.04,0.73-14.62-1.46-19.17c-2.52-5.12-7.8-10.23-13.16-12.75c-6.5-3.01-15.59-2.92-22.01,0.16
			c-5.36,2.6-10.72,8.04-13.16,13.4c-2.52,5.36-2.52,16.08-0.08,21.36c3.49,7.47,10.72,13.4,18.76,15.27
			C710.89,7893.68,713.01,7893.59,718.28,7892.38z M855.06,7890.26c9.18-4.55,14.46-13.08,14.46-23.55c0-5.28-0.41-6.9-2.68-11.53
			c-4.71-9.67-13.08-14.86-23.72-14.86c-10.72,0.08-19.01,5.28-23.72,14.86c-2.27,4.63-2.68,6.17-2.68,11.53
			c0.08,4.87,0.49,7.07,2.19,10.64C825.41,7891.48,841.09,7897.09,855.06,7890.26z M789.67,7824.64c5.2-2.52,10.23-7.8,12.75-13.16
			c2.76-5.93,2.92-15.51,0.32-21.28c-2.44-5.36-7.72-10.8-13.16-13.4c-3.9-1.95-5.52-2.27-11.45-2.27c-5.93,0-7.55,0.32-11.53,2.27
			c-13.56,6.66-19.01,23.8-11.53,36.79c2.52,4.47,9.26,10.48,13.56,12.02C773.84,7827.56,784.8,7827,789.67,7824.64z
			 M423.62,7720.11c19.57-4.14,36.22-20.71,40.69-40.69c2.76-12.51,0.32-27.05-6.34-38.33c-4.22-7.23-12.99-15.51-20.55-19.41
			c-8.69-4.47-15.35-6.17-24.77-6.17c-20.79-0.08-38.98,11.29-47.92,29.89c-4.06,8.53-5.2,13.73-5.12,23.15
			c0.08,20.87,11.21,38.42,30.05,47.59C399.99,7721.17,412.01,7722.55,423.62,7720.11z M648.44,7720.11
			c11.13-2.35,23.07-9.83,30.13-18.76c7.8-9.91,11.29-20.47,11.29-33.62c-0.08-15.03-5.36-27.05-16.57-37.77
			c-10.31-9.83-22.17-14.54-36.47-14.46c-14.38,0.08-27.05,5.28-36.95,15.27c-9.99,10.07-14.86,20.87-15.59,34.52
			c-0.57,9.99,1.06,17.87,5.6,27.05c6.66,13.32,21.12,24.61,35.57,27.7C632.36,7721.57,641.61,7721.57,648.44,7720.11z"/>
		<path class="st1" d="M0,7554.43c0,29.53,0.83,42.71,4.43,70.54c16.47,126.8,72.09,275.29,135.27,361.1
			c33,44.78,65.7,70.9,97.21,77.62c7.01,1.53,13.41,1.67,75.53,1.67c66.36,0.08,68.45,0.03,74.36-1.78
			c7.55-2.33,17.97-8.92,34.87-22.02c13.9-10.75,21.88-15.97,27.53-18.03c3.07-1.06,12.36-1.14,75.54-1.14s72.47,0.07,75.62,1.17
			c5.56,2.03,13.54,7.25,27.45,18c16.96,13.16,27.44,19.77,35.03,22.09c6.13,1.82,8.26,1.86,76.33,1.62
			c70.21-0.25,70.21-0.25,77.35-2.33c21.52-6.06,39.41-17.66,61.7-40.04c18.64-18.81,34.37-39.06,51.03-65.68
			c51.93-83.2,94.89-201.12,112.11-307.72c21.82-135.13,1.92-225.54-56.04-254.58c-9.38-4.73-18.51-7.57-29.58-9.2
			c-23.48-3.5-46.45,1.27-70.21,14.6c-17.66,9.95-31.81,21.05-52.22,40.97c-24.15,23.73-38.18,40.23-75.07,88.29
			c-12.04,15.62-26.08,33.6-30.28,38.53l-6.05,7.27H327.57l-6-7.22c-4.1-4.81-16.4-20.47-28.04-35.72
			c-35.37-46.04-49.16-62.54-70.29-84.08c-24.09-24.58-41.54-38.5-62.22-49.64c-22.22-11.95-44.85-16.33-67.29-13.01
			c-47.77,7.06-77.8,42.86-89.26,106.42C0.84,7512.63,0,7524.28,0,7554.43z M1038.98,7553.11c0,28.38-2.75,60.08-8.33,94.67
			c-17,105.27-59.38,221.64-110.6,303.7c-16.21,25.91-31.48,45.58-49.52,63.78c-20.86,20.93-37.37,31.73-56.99,37.25
			c-5.67,1.65-6.36,1.67-74.24,1.91c-64.76,0.23-68.86,0.17-73.32-1.16c-6.13-1.87-15.86-8.13-31.51-20.28
			c-15.26-11.8-23.52-17.12-30.47-19.65c-4.98-1.73-7.94-1.79-79.26-1.79s-74.28,0.06-79.18,1.76c-7.04,2.56-15.29,7.89-30.54,19.68
			c-15.39,11.93-25.38,18.35-31.42,20.23c-4.25,1.3-8.24,1.37-71.16,1.3c-59.87,0-67.4-0.15-73.25-1.42h-0.02
			c-28.83-6.16-59.35-30.87-90.73-73.44c-62.2-84.48-116.99-230.9-133.24-356.06c-3.53-27.27-4.34-40.19-4.34-69.15
			c0-29.38,0.81-40.66,4.3-60.37c10.54-58.45,37.5-91.28,80.16-97.58c20.35-3.01,40.16,0.86,60.55,11.83
			c19.63,10.57,36.35,23.93,59.61,47.67c20.76,21.17,34.38,37.47,69.42,83.08c11.73,15.37,24.19,31.24,28.36,36.12l9.22,11.08H727
			l9.26-11.13c4.58-5.37,19.35-24.32,30.59-38.9c36.53-47.58,50.37-63.87,74.06-87.16c19.65-19.18,33.2-29.82,49.94-39.27
			c21.57-12.1,42.28-16.46,63.3-13.33c9.88,1.45,17.98,3.97,26.3,8.16C1018.86,7423.88,1038.98,7476.32,1038.98,7553.11z
			 M175.76,7845.03v49.04h57.66v57.67h49.85v-57.67h57.71l-0.53-49.13l-57.22,0.1l-0.41-58l-49.4-0.51v58.52H175.76z
			 M186.62,7883.21v-27.31h57.66v-58.43l27.76,0.29l0.39,58.14l57.3-0.06l0.29,27.37H272.4v57.67h-28.12v-57.67H186.62z
			 M354.19,7667.66c0,0.31,0.01,0.62,0.01,0.93c0.09,22.77,12.47,42.38,33.11,52.43c11.33,5.53,24.63,7.1,37.44,4.41h0.01
			c21.54-4.56,39.99-22.99,44.87-44.82c3.08-13.88,0.47-29.7-6.95-42.28c-4.73-8.08-14.3-17.12-22.74-21.48
			c-9.5-4.88-17.14-6.78-27.27-6.78c-22.76-0.08-43,12.55-52.81,32.97C355.56,7652.03,354.19,7657.92,354.19,7667.66z M422.5,7714.8
			c-10.46,2.19-21.27,0.93-30.44-3.55c-17.09-8.32-26.93-23.9-27-42.73c-0.04-8.67,0.91-13.08,4.59-20.78
			c7.97-16.6,24.45-26.87,42.99-26.8c8.47,0,14.31,1.46,22.31,5.58c6.59,3.4,14.65,11.01,18.34,17.32
			c5.98,10.15,8.18,23.36,5.72,34.42C455.03,7696.06,440.02,7711.09,422.5,7714.8L422.5,7714.8z M578.74,7668.96
			c0,9.15,1.95,17.06,6.27,25.79c7.45,14.88,23.24,27.17,39.31,30.59c7.6,1.7,17.52,1.74,25.24,0.09l0,0
			c12.32-2.61,25.38-10.74,33.27-20.71c8.51-10.81,12.47-22.56,12.47-36.99c-0.1-16.64-5.89-29.87-18.25-41.69
			c-11.37-10.83-24.53-16.05-40.25-15.97c-15.82,0.1-29.92,5.93-40.78,16.88c-10.91,11-16.36,23.09-17.16,38.06
			C578.78,7666.35,578.74,7667.66,578.74,7668.96z M684.43,7667.76c0,12-3.12,21.33-10.13,30.24c-6.3,7.97-17.15,14.73-26.98,16.81
			l-0.01,0.01c-6.12,1.3-14.61,1.28-20.67-0.07c-12.86-2.74-25.96-12.95-31.9-24.83c-4.08-8.25-5.54-15.23-5.04-24.31
			c0.66-12.33,4.98-21.89,14.03-31c8.92-8.99,20.07-13.59,33.13-13.67c12.95-0.07,23.33,4.05,32.68,12.96
			C679.62,7643.53,684.35,7654.29,684.43,7667.76z M680.41,7866.79c0,4.74,0.77,9.47,2.32,12.83c4.23,9.05,12.84,16.05,22.47,18.29
			c5.55,1.32,8.57,1.08,14.31-0.24h0.01c10.69-2.48,20.25-11.45,23.24-21.82c1.83-6.31,0.99-17.29-1.79-23.04
			c-3.08-6.27-9.25-12.26-15.74-15.3c-8.03-3.72-18.74-3.64-26.67,0.18c-6.49,3.15-12.81,9.59-15.74,16.05
			C681.21,7857.13,680.41,7861.97,680.41,7866.79z M717.06,7887.08c-4.6,1.06-5.83,1.09-9.38,0.25c-6.38-1.48-12.3-6.3-15.09-12.29
			c-1.77-3.82-1.72-12.91,0.08-16.75c1.93-4.24,6.38-8.77,10.61-10.82c4.91-2.37,12.38-2.42,17.36-0.12
			c4.23,1.98,8.58,6.19,10.56,10.22c1.61,3.34,2.21,11.49,1.12,15.26C730.43,7879.38,723.87,7885.5,717.06,7887.08L717.06,7887.08z
			 M745.5,7931.69c0,5.25,0.35,8.85,2.2,12.9c4.1,8.78,12.18,15.5,21.65,18.01c5.74,1.53,8.57,1.54,15.11,0.04l0.05-0.01
			c10.34-2.46,19.29-10.46,22.79-20.36c2.05-5.6,2.05-15.54-0.02-21.21c-3.82-10.7-12.77-18.47-23.91-20.74
			c-10.95-2.23-21.99,1.32-29.53,9.49C747.61,7916.52,745.5,7922.05,745.5,7931.69z M782.01,7952.06c-5.02,1.15-6.02,1.07-9.86,0.04
			c-6.4-1.7-11.86-6.21-14.59-12.07c-0.82-1.8-1.2-3.45-1.2-8.34c0-6.85,1.12-9.83,5.46-14.5c4.94-5.37,12.18-7.69,19.38-6.23
			c7.38,1.51,13.31,6.66,15.86,13.79c1.21,3.33,1.21,10.56,0.01,13.85C794.76,7945.16,788.85,7950.43,782.01,7952.06z
			 M746.29,7800.83c0,5.42,1.38,10.77,4.07,15.46c3.15,5.58,10.99,12.47,16.44,14.43c6.43,2.41,18.96,1.84,25.23-1.19l0.01-0.01
			c6.22-3.02,12.23-9.2,15.29-15.74c3.42-7.34,3.58-18.66,0.37-25.81c-3.02-6.65-9.21-12.95-15.78-16.07
			c-4.85-2.43-7.45-2.81-13.79-2.81c-6.32,0-8.91,0.37-13.92,2.83c-7.89,3.87-13.92,10.99-16.52,19.53
			C746.75,7794.53,746.29,7797.69,746.29,7800.83z M787.32,7819.75c-3.62,1.75-13.02,2.19-16.77,0.77c-2.9-1.04-8.69-5.96-10.74-9.6
			c-2.83-4.92-3.42-10.69-1.72-16.29c1.73-5.68,5.71-10.4,10.92-12.95c3.07-1.5,3.86-1.72,9.14-1.72c5.45,0,6.16,0.27,9.02,1.7
			c4.35,2.07,8.69,6.49,10.65,10.79c1.93,4.28,1.79,12.26-0.31,16.73C795.5,7813.47,791.31,7817.81,787.32,7819.75L787.32,7819.75z
			 M811.29,7866.71c0.08,5.24,0.5,8.32,2.72,12.98c3.73,8.11,10.26,14.21,18.36,17.1c8.09,2.89,17,2.31,25.07-1.64l0.03-0.02
			c11.1-5.51,17.47-15.87,17.47-28.42c0-6.03-0.57-8.5-3.24-13.92c-5.62-11.54-15.78-17.9-28.59-17.9
			c-12.83,0.1-22.96,6.45-28.59,17.89C811.84,7858.27,811.29,7860.61,811.29,7866.71z M852.66,7885.39
			c-5.42,2.64-11.33,3.06-16.64,1.16c-5.32-1.9-9.64-5.97-12.17-11.47c-1.27-2.67-1.62-4.01-1.69-8.46c0-4.45,0.24-5.21,2.12-9.05
			c3.82-7.78,10.18-11.76,18.88-11.82c8.51,0,15.03,4.08,18.79,11.81c1.93,3.94,2.13,4.79,2.13,9.15
			C864.08,7875.1,860.03,7881.73,852.66,7885.39z"/>
	</g>
</g>
</svg>
